<svg width="18" height="18" viewBox="0 0 18 18" fill="none" xmlns="http://www.w3.org/2000/svg">
<g clip-path="url(#clip0)">
<path d="M6.57819 1.76963C6.78131 2.18942 6.60189 2.69724 6.1821 2.90036C5.01413 3.46234 4.02559 4.33578 3.32142 5.42927C2.60033 6.54984 2.21777 7.84984 2.21777 9.19047C2.21777 13.0363 5.3459 16.1644 9.19173 16.1644C13.0376 16.1644 16.1657 13.0363 16.1657 9.19047C16.1657 7.84984 15.7831 6.54984 15.0654 5.42588C14.3646 4.33239 13.3727 3.45896 12.2048 2.89698C11.785 2.69385 11.6055 2.18943 11.8087 1.76625C12.0118 1.34646 12.5162 1.16703 12.9394 1.37015C14.3917 2.06755 15.6206 3.15088 16.4907 4.51182C17.3844 5.90661 17.8584 7.52484 17.8584 9.19047C17.8584 11.5061 16.9579 13.6829 15.3193 15.3181C13.6842 16.9566 11.5074 17.8571 9.19173 17.8571C6.87611 17.8571 4.69928 16.9566 3.06413 15.3181C1.42558 13.6795 0.525065 11.5061 0.525065 9.19047C0.525065 7.52484 0.999024 5.90661 1.89616 4.51182C2.7696 3.15427 3.9985 2.06755 5.44746 1.37015C5.87064 1.17041 6.37506 1.34646 6.57819 1.76963Z" fill="#FF2E2E"/>
<path d="M5.89746 8.74019C5.73158 8.5743 5.65032 8.35764 5.65032 8.14097C5.65032 7.9243 5.73158 7.70763 5.89746 7.54175L8.02689 5.41232C8.33835 5.10086 8.75137 4.93159 9.18809 4.93159C9.6248 4.93159 10.0412 5.10425 10.3493 5.41232L12.4787 7.54175C12.8105 7.87352 12.8105 8.40842 12.4787 8.74019C12.1469 9.07196 11.612 9.07196 11.2803 8.74019L10.0311 7.49097L10.0311 12.3016C10.0311 12.7688 9.65189 13.148 9.1847 13.148C8.71751 13.148 8.33835 12.7688 8.33835 12.3016L8.33835 7.48758L7.08913 8.7368C6.76413 9.06857 6.22923 9.06857 5.89746 8.74019Z" fill="#FF2E2E"/>
</g>
<defs>
<clipPath id="clip0">
<rect width="17.3333" height="17.3333" fill="white" transform="matrix(1.19249e-08 -1 -1 -1.19249e-08 17.8584 17.8571)"/>
</clipPath>
</defs>
</svg>
